mtllib EscapeArtifact.mtl
o StudentMade_EscapeArtifact
usemtl Artifact_Cyan_Glass
v 0.000 1.050 0.000
v 0.500 0.350 0.000
v 0.354 0.350 0.354
v 0.000 0.350 0.500
v -0.354 0.350 0.354
v -0.500 0.350 0.000
v -0.354 0.350 -0.354
v 0.000 0.350 -0.500
v 0.354 0.350 -0.354
v 0.375 -0.350 0.000
v 0.265 -0.350 0.265
v 0.000 -0.350 0.375
v -0.265 -0.350 0.265
v -0.375 -0.350 0.000
v -0.265 -0.350 -0.265
v 0.000 -0.350 -0.375
v 0.265 -0.350 -0.265
v 0.000 -1.050 0.000
f 1 2 3
f 1 3 4
f 1 4 5
f 1 5 6
f 1 6 7
f 1 7 8
f 1 8 9
f 1 9 2
f 2 10 11 3
f 3 11 12 4
f 4 12 13 5
f 5 13 14 6
f 6 14 15 7
f 7 15 16 8
f 8 16 17 9
f 9 17 10 2
f 18 11 10
f 18 12 11
f 18 13 12
f 18 14 13
f 18 15 14
f 18 16 15
f 18 17 16
f 18 10 17
o Artifact_Energy_Ring
usemtl Artifact_Gold_Ring
v 0.760 -0.180 0.000
v 0.537 -0.180 0.537
v 0.000 -0.180 0.760
v -0.537 -0.180 0.537
v -0.760 -0.180 0.000
v -0.537 -0.180 -0.537
v 0.000 -0.180 -0.760
v 0.537 -0.180 -0.537
v 0.610 -0.180 0.000
v 0.431 -0.180 0.431
v 0.000 -0.180 0.610
v -0.431 -0.180 0.431
v -0.610 -0.180 0.000
v -0.431 -0.180 -0.431
v 0.000 -0.180 -0.610
v 0.431 -0.180 -0.431
v 0.760 -0.280 0.000
v 0.537 -0.280 0.537
v 0.000 -0.280 0.760
v -0.537 -0.280 0.537
v -0.760 -0.280 0.000
v -0.537 -0.280 -0.537
v 0.000 -0.280 -0.760
v 0.537 -0.280 -0.537
v 0.610 -0.280 0.000
v 0.431 -0.280 0.431
v 0.000 -0.280 0.610
v -0.431 -0.280 0.431
v -0.610 -0.280 0.000
v -0.431 -0.280 -0.431
v 0.000 -0.280 -0.610
v 0.431 -0.280 -0.431
f 19 20 28 27
f 20 21 29 28
f 21 22 30 29
f 22 23 31 30
f 23 24 32 31
f 24 25 33 32
f 25 26 34 33
f 26 19 27 34
f 35 43 44 36
f 36 44 45 37
f 37 45 46 38
f 38 46 47 39
f 39 47 48 40
f 40 48 49 41
f 41 49 50 42
f 42 50 43 35
f 19 35 36 20
f 20 36 37 21
f 21 37 38 22
f 22 38 39 23
f 23 39 40 24
f 24 40 41 25
f 25 41 42 26
f 26 42 35 19
f 27 28 44 43
f 28 29 45 44
f 29 30 46 45
f 30 31 47 46
f 31 32 48 47
f 32 33 49 48
f 33 34 50 49
f 34 27 43 50
